<svg width="341" height="247" fill="none" xmlns="http://www.w3.org/2000/svg"><path d="M341 84.453v115.319h-49.686V91.194c0-31.576-17.383-48.612-43.64-48.612-16.309 0-29.098 6.23-36.666 18.126-4.974 7.783-7.683 18.011-7.683 30.486v9.584c0 44.135-19.795 77.612-49.67 92.963a81.876 81.876 0 01-13.219 5.386c-8.114 2.512-16.773 3.834-25.827 3.834-30.866 0-52.86-15.251-64.921-31.214V246.5H0V52.893C0 25.451 22.246 3.206 49.688 3.206h90.748v57.998c-9.865-11.566-24.142-17.548-38.947-17.548-26.62 0-51.801 20.572-51.801 57.833 0 37.261 25.181 57.833 51.801 57.833 14.805 0 29.081-6.411 38.947-18.374 8.096-9.816 13.219-23.381 13.219-40.169V3.206h49.67v24.471C216.098 11.005 237.38.364 262.579.364 308.35.364 341 30.172 341 84.453z" fill="url(#a)"/><path d="M203.325 160.23v39.541h-34.006c14.227-9.616 25.86-23.133 34.006-39.541z" fill="url(#b)"/><defs><linearGradient id="a" x1="-2.199" y1="146.722" x2="324.429" y2="146.722" gradientUnits="userSpaceOnUse"><stop stop-color="#8E1076"/><stop offset="1" stop-color="#E82E5D"/></linearGradient><linearGradient id="b" x1="-2.198" y1="180.001" x2="324.429" y2="180.001" gradientUnits="userSpaceOnUse"><stop stop-color="#8E1076"/><stop offset="1" stop-color="#E82E5D"/></linearGradient></defs></svg>